# xmcd
#
# Track frame offsets:
#	150
#	2568
#	14358
#	31119
#	53232
#	67340
#	84902
#	100743
#	120243
#	134484
#	147703
#	162625
#	178033
#	197315
#
# Disc length: 2661 seconds
#
# Revision: 1
# Processed by: cddbd v1.5.2PL0 Copyright (c) Steve Scherf et al.
# Submitted via: EZCDAudioConverter 9.0.7.1
#
DISCID=b90a630e
DTITLE=Dan Collins - CDC: A Lifetime in the Making
DYEAR=2019
DGENRE=Country
TTITLE0=Bethania Shuffle
TTITLE1=Herd Mentality
TTITLE2=Only Woman (I Could Ever Want to Come Home To)
TTITLE3=Kid From Waycross
TTITLE4=Granny Jones
TTITLE5=Whisky in the Alley
TTITLE6=Glory of Love
TTITLE7=Trackbar Adjustment (And a High Groove)
TTITLE8=NRA
TTITLE9=Hansbrough
TTITLE10=Lovers Leap
TTITLE11=Angels on My Shoulders
TTITLE12=Trail of Tears
TTITLE13=Bethania Shuffle 
EXTD=
EXTT0=
EXTT1=
EXTT2=
EXTT3=
EXTT4=
EXTT5=
EXTT6=
EXTT7=
EXTT8=
EXTT9=
EXTT10=
EXTT11=
EXTT12=
EXTT13=
PLAYORDER=
